<?xml version="1.0" encoding="utf-8"?>
<!-- Generator: Adobe Illustrator 19.0.0, SVG Export Plug-In . SVG Version: 6.00 Build 0)  -->
<svg version="1.1" id="Layer_1" xmlns="http://www.w3.org/2000/svg" xmlns:xlink="http://www.w3.org/1999/xlink" x="0px" y="0px"
	 viewBox="0 0 600 600" style="enable-background:new 0 0 600 600;" xml:space="preserve">
<style type="text/css">
	.st0{fill:#73CCD7;stroke:#000000;stroke-miterlimit:10;}
	.st1{fill:none;stroke:#000000;stroke-miterlimit:10;}
	.st2{display:none;fill:#FFFFFF;}
	.st3{fill:none;stroke:#FFFFFF;stroke-width:22;stroke-linecap:round;stroke-linejoin:round;stroke-miterlimit:10;}
	.st4{fill:none;stroke:#FFFFFF;stroke-width:25;stroke-linecap:round;stroke-linejoin:round;stroke-miterlimit:10;}
</style>
<g id="XMLID_1_">
	<circle id="XMLID_2_" class="st0" cx="300" cy="300" r="300"/>
	<path id="XMLID_158_" class="st1" d="M455.5,116.9c39.6,33.5,68.3,79.6,79.9,132.1"/>
	<path id="XMLID_159_" class="st1" d="M64.6,249c12.3-55.7,43.8-104.3,87.3-138.2"/>
	<path id="XMLID_156_" class="st1" d="M424.4,507.5c55.7-33.6,96.6-89.1,111-154.5"/>
	<path id="XMLID_157_" class="st1" d="M64.6,353.1c15.6,70.7,62.1,129.7,124.7,162.1"/>
	<rect id="XMLID_99_" x="9.1" y="249" class="st2" width="582.3" height="88.8"/>
	<path id="XMLID_155_" class="st3" d="M397.3,519.9c-29.7,13.2-62.7,20.5-97.3,20.5c-30.4,0-59.5-5.7-86.3-16"/>
	<path id="XMLID_153_" class="st4" d="M175.6,95.7c36.3-22,78.8-34.6,124.4-34.6c47.7,0,92.2,13.9,129.6,37.9"/>
	<g id="XMLID_45_">
		<path id="XMLID_49_" d="M231.5,520.6l-12.2,10.2l-3,8.3l-2.6-0.9l3-8.3l-3-15.7l3.1,1.1l1.5,8.8l0.6,3.6l2.8-2.4l6.7-5.8
			L231.5,520.6z"/>
		<path id="XMLID_51_" d="M237.2,527.4c1.6,0.4,2.8,1.2,3.9,2.2c1,1,1.7,2.3,2,3.7c0.3,1.5,0.2,3.1-0.3,4.9
			c-0.5,1.8-1.3,3.2-2.3,4.3c-1,1.1-2.3,1.8-3.6,2.2c-1.4,0.3-2.9,0.3-4.4-0.1c-1.5-0.4-2.8-1.1-3.8-2.2c-1-1-1.7-2.3-2-3.7
			c-0.3-1.5-0.2-3.1,0.3-4.9s1.3-3.2,2.3-4.3c1-1.1,2.3-1.8,3.7-2.2C234.2,526.9,235.6,527,237.2,527.4z M236.6,529.7
			c-1.1-0.3-2.1-0.3-3.1,0c-0.9,0.3-1.7,0.8-2.4,1.7s-1.2,1.9-1.6,3.2c-0.4,1.3-0.5,2.5-0.3,3.5c0.2,1.1,0.6,2,1.2,2.7
			c0.7,0.7,1.5,1.2,2.7,1.6c1.1,0.3,2.1,0.3,3.1,0c0.9-0.3,1.7-0.8,2.4-1.7c0.7-0.8,1.2-1.9,1.6-3.2c0.4-1.3,0.5-2.5,0.3-3.6
			c-0.2-1.1-0.6-1.9-1.2-2.7C238.6,530.5,237.7,530,236.6,529.7z"/>
		<path id="XMLID_58_" d="M252.6,549.2c-1.1-0.2-2.1-0.6-2.9-1.2c-0.9-0.6-1.5-1.4-2-2.4c-0.4-1-0.5-2.3-0.2-3.7l2-11l2.7,0.5
			l-1.9,10.3c-0.3,1.7-0.2,2.9,0.5,3.7c0.6,0.8,1.6,1.3,3,1.5c0.6,0.1,1.3,0.1,1.9,0c0.6-0.1,1.3-0.3,1.8-0.7
			c0.6-0.4,1.1-0.9,1.5-1.6c0.4-0.7,0.7-1.5,0.9-2.5l1.7-9.2l2.7,0.5l-3.1,16.8l-2.4-0.4l0.3-2.6c-0.8,0.9-1.7,1.5-2.8,1.8
			C255.1,549.5,253.9,549.5,252.6,549.2z"/>
		<path id="XMLID_60_" d="M268.2,551.4l1.9-17l2.2,0.2l0.1,2.8c0.6-1,1.4-1.7,2.4-2.1c1-0.4,2.1-0.6,3.4-0.4c0.3,0,0.6,0.1,1,0.2
			c0.3,0.1,0.6,0.2,0.9,0.4l-0.8,2.4c-0.2-0.1-0.5-0.2-0.8-0.3c-0.3-0.1-0.7-0.1-1.3-0.2c-0.7-0.1-1.4,0-2.2,0.4
			c-0.8,0.3-1.4,0.9-2,1.7c-0.6,0.8-0.9,1.8-1.1,3.1l-1,9.2L268.2,551.4z"/>
		<path id="XMLID_62_" d="M310.4,533.2l-13.1,0.2l0.1,7.3l10.2-0.2l0,2.6l-10.2,0.2l0.2,10.2l-2.7,0l-0.4-22.6l15.8-0.3L310.4,533.2
			z"/>
		<path id="XMLID_64_" d="M320.8,552.8c-1.1,0.1-2.1,0-3.1-0.3c-1-0.3-1.8-0.9-2.5-1.8c-0.7-0.9-1.1-2-1.2-3.5l-1-11.2l2.7-0.2
			l0.9,10.5c0.1,1.7,0.6,2.9,1.4,3.5c0.8,0.6,1.9,0.8,3.3,0.7c0.6-0.1,1.3-0.2,1.8-0.5c0.6-0.3,1.1-0.7,1.6-1.2s0.8-1.1,1-1.9
			c0.2-0.8,0.3-1.6,0.2-2.6l-0.8-9.3l2.7-0.2l1.5,17.1l-2.4,0.2l-0.4-2.6c-0.5,1.1-1.2,1.9-2.2,2.4
			C323.3,552.4,322.2,552.7,320.8,552.8z"/>
		<path id="XMLID_66_" d="M343.8,532.2l0.4,2.3l-12.2,2l-0.4-2.3L343.8,532.2z M336.9,528.4l2.7,17c0.1,0.8,0.5,1.4,1,1.7
			c0.5,0.3,1.2,0.4,1.9,0.3c0.7-0.1,1.2-0.3,1.6-0.6c0.4-0.3,0.8-0.7,1.1-1.1l1.3,2.1c-0.4,0.6-1,1-1.7,1.4
			c-0.7,0.4-1.5,0.7-2.4,0.8c-0.9,0.1-1.7,0.1-2.5-0.1c-0.8-0.2-1.5-0.6-2-1.2c-0.5-0.6-0.9-1.4-1.1-2.5l-2.7-16.8L336.9,528.4z"/>
		<path id="XMLID_69_" d="M357.5,547.1c-1.1,0.3-2.1,0.3-3.2,0.1c-1-0.2-2-0.6-2.8-1.4c-0.8-0.8-1.4-1.9-1.7-3.3l-2.6-10.9l2.7-0.6
			l2.4,10.2c0.4,1.7,1,2.8,1.9,3.2c0.9,0.5,2,0.5,3.3,0.2c0.6-0.1,1.2-0.4,1.8-0.8c0.5-0.4,1-0.8,1.4-1.4c0.4-0.6,0.6-1.2,0.7-2
			c0.1-0.8,0-1.7-0.2-2.6l-2.2-9.1l2.7-0.6l4,16.7l-2.3,0.6l-0.8-2.5c-0.3,1.1-0.9,2-1.8,2.7C360,546.3,358.9,546.8,357.5,547.1z"/>
		<path id="XMLID_71_" d="M372.7,542.7l-5.2-16.3l2.1-0.7l1.2,2.6c0.1-1.1,0.6-2.1,1.3-2.9c0.7-0.8,1.7-1.4,3-1.8
			c0.3-0.1,0.6-0.2,1-0.2c0.3-0.1,0.7-0.1,0.9,0l0.3,2.5c-0.3,0-0.5,0-0.8,0.1c-0.3,0-0.7,0.2-1.2,0.3c-0.7,0.2-1.3,0.6-1.9,1.2
			c-0.6,0.6-0.9,1.4-1.2,2.3c-0.2,0.9-0.1,2,0.3,3.2l2.8,8.8L372.7,542.7z"/>
		<path id="XMLID_73_" d="M392.9,536c-1.5,0.6-3,0.8-4.4,0.6c-1.4-0.2-2.7-0.8-3.9-1.8c-1.1-1-2.1-2.3-2.7-4.1
			c-0.7-1.7-0.9-3.3-0.8-4.8s0.7-2.8,1.6-3.9c0.9-1.1,2.1-2,3.5-2.5c1.5-0.6,2.9-0.8,4.2-0.5c1.3,0.2,2.4,0.8,3.4,1.6
			c1,0.9,1.7,2,2.3,3.4c0.1,0.4,0.3,0.7,0.4,1c0.1,0.3,0.2,0.6,0.2,0.8l-12.9,5.1l-0.9-2.3l11.8-4.6l-1.2,0.8
			c-0.6-1.5-1.5-2.5-2.7-3c-1.2-0.5-2.4-0.5-3.8,0.1c-1,0.4-1.8,1-2.4,1.8c-0.6,0.8-0.9,1.7-0.9,2.8s0.2,2.2,0.7,3.5
			c0.5,1.3,1.1,2.3,1.9,3c0.8,0.7,1.7,1.2,2.6,1.4c1,0.2,2,0,3.1-0.4c1.2-0.5,2-1.1,2.6-1.8c0.6-0.7,0.9-1.6,1.1-2.5l2.5,0.4
			c-0.1,0.9-0.4,1.7-0.8,2.5c-0.4,0.8-1,1.5-1.7,2.1C394.9,535.1,394,535.6,392.9,536z"/>
	</g>
	<g id="XMLID_3_">
		<path id="XMLID_5_" d="M191.2,73.2l1.2,2.3l-7,3.7l9.3,17.7l-2.4,1.3l-9.3-17.7l-7,3.7l-1.2-2.3L191.2,73.2z"/>
		<path id="XMLID_7_" d="M204.1,92.1l-9.7-23l2.5-1.1l4.1,9.6c0.1-1.2,0.6-2.2,1.3-3c0.7-0.8,1.6-1.4,2.7-1.9
			c1.1-0.5,2.3-0.7,3.4-0.7c1.1,0,2.1,0.4,3.1,1c0.9,0.6,1.7,1.7,2.3,3l4.3,10.1l-2.5,1.1l-3.9-9.2c-0.7-1.7-1.6-2.8-2.7-3.2
			c-1-0.4-2.1-0.3-3.2,0.1c-0.8,0.3-1.4,0.8-2,1.5c-0.6,0.7-1,1.5-1.1,2.5c-0.2,1,0.1,2.2,0.6,3.5l3.5,8.4L204.1,92.1z"/>
		<path id="XMLID_9_" d="M229.8,82.6c-1.5,0.5-3,0.6-4.4,0.3c-1.4-0.3-2.7-1-3.8-2c-1.1-1.1-1.9-2.5-2.5-4.2
			c-0.6-1.8-0.7-3.4-0.5-4.9c0.3-1.5,0.9-2.8,1.8-3.8c1-1.1,2.2-1.8,3.7-2.3c1.5-0.5,2.9-0.6,4.2-0.3c1.3,0.3,2.4,0.9,3.3,1.9
			c0.9,0.9,1.6,2.1,2.1,3.5c0.1,0.4,0.2,0.7,0.3,1c0.1,0.3,0.1,0.6,0.2,0.8L221,76.9l-0.7-2.3l12-3.9l-1.3,0.7
			c-0.5-1.6-1.3-2.6-2.5-3.2c-1.1-0.6-2.4-0.6-3.8-0.2c-1.1,0.3-1.9,0.9-2.5,1.6c-0.6,0.7-1,1.6-1.1,2.7c-0.1,1.1,0,2.2,0.4,3.5
			c0.4,1.3,1,2.3,1.7,3.1c0.7,0.8,1.6,1.3,2.5,1.5c1,0.2,2,0.2,3.1-0.2c1.2-0.4,2.1-0.9,2.7-1.6c0.6-0.7,1-1.5,1.2-2.4l2.4,0.5
			c-0.2,0.9-0.5,1.7-1,2.4c-0.5,0.8-1.1,1.4-1.8,2C231.7,81.8,230.8,82.3,229.8,82.6z"/>
		<path id="XMLID_11_" d="M252,76.2l-4-22.2l7.9-1.4c2.6-0.5,4.6-0.3,6.1,0.6c1.4,0.9,2.3,2.3,2.6,4.2c0.2,1.1,0.1,2.2-0.4,3.2
			c-0.5,1-1.3,1.8-2.5,2.2l0,0c1.4,0,2.5,0.4,3.5,1.2c0.9,0.8,1.5,1.8,1.7,3c0.3,1.9-0.1,3.5-1.3,4.9c-1.2,1.4-3.1,2.3-5.8,2.8
			L252,76.2z M252.5,63.3l5.3-0.9c3.1-0.6,4.5-2.1,4.1-4.5c-0.4-2.4-2.2-3.3-5.4-2.8l-5.3,0.9L252.5,63.3z M254.3,73.2l5.8-1
			c1.6-0.3,2.7-0.8,3.4-1.6c0.7-0.8,0.9-1.8,0.7-2.9c-0.2-1.2-0.8-2-1.7-2.5c-0.9-0.5-2.1-0.6-3.7-0.3l-5.8,1L254.3,73.2z"/>
		<path id="XMLID_15_" d="M279.8,72.5c-1.6,0.1-3.1-0.1-4.4-0.7c-1.3-0.6-2.4-1.5-3.2-2.8c-0.8-1.3-1.3-2.8-1.5-4.7
			c-0.2-1.8,0-3.5,0.6-4.9c0.6-1.4,1.5-2.5,2.6-3.3s2.5-1.3,4.1-1.4c1.6-0.1,3,0.1,4.2,0.7c1.2,0.6,2.1,1.4,2.8,2.5
			c0.7,1.1,1.1,2.4,1.2,3.9c0,0.4,0.1,0.7,0.1,1.1s0,0.6,0,0.9L272.5,65l-0.2-2.4l12.6-1.1l-1.4,0.4c-0.1-1.6-0.7-2.9-1.7-3.7
			c-1-0.8-2.2-1.1-3.6-1c-1.1,0.1-2.1,0.4-2.8,1c-0.8,0.6-1.3,1.4-1.7,2.4s-0.5,2.2-0.4,3.6c0.1,1.3,0.4,2.5,1,3.4
			c0.5,0.9,1.3,1.6,2.1,2.1c0.9,0.4,1.9,0.6,3.1,0.5c1.3-0.1,2.2-0.4,3-1c0.7-0.5,1.3-1.3,1.7-2.1l2.3,1.1c-0.4,0.8-0.9,1.5-1.5,2.2
			c-0.6,0.6-1.4,1.1-2.2,1.5C281.9,72.2,280.9,72.4,279.8,72.5z"/>
		<path id="XMLID_17_" d="M300.7,69.1c1.6,0,2.9,0.3,3.8,1.1c0.9,0.7,1.4,1.7,1.4,2.9c0,1.1-0.3,2.1-1.1,2.9
			c-0.7,0.8-1.7,1.5-2.9,1.9c-1.2,0.5-2.6,0.7-4.2,0.7c-2.7,0-4.7-0.4-6.1-1.3c-1.3-0.9-2-2-2.1-3.3c0-0.9,0.3-1.7,0.9-2.5
			c0.6-0.7,1.6-1.2,3-1.3l-0.2,0.5c-0.8-0.2-1.4-0.5-2-1c-0.5-0.5-0.8-1.2-0.8-2.1c0-0.9,0.3-1.7,1-2.4c0.7-0.7,1.7-1.1,3.1-1.3
			l1.8,0.9l-0.3,0c-1.1,0.1-1.9,0.4-2.4,0.9c-0.5,0.5-0.7,0.9-0.7,1.5c0,0.6,0.3,1.1,0.7,1.4c0.5,0.3,1.1,0.4,2,0.4L300.7,69.1z
			 M297.1,53.9c1.4,0,2.6,0.2,3.7,0.7c1.1,0.5,1.9,1.1,2.5,2c0.6,0.9,0.9,1.9,0.9,3c0,1.1-0.3,2.1-0.8,3c-0.6,0.9-1.4,1.6-2.4,2.1
			c-1.1,0.5-2.3,0.8-3.6,0.8c-2.3,0-4-0.5-5.2-1.5c-1.2-1.1-1.9-2.4-1.9-4.1c0-1.1,0.3-2.1,0.9-3c0.6-0.9,1.4-1.6,2.4-2.1
			C294.5,54.2,295.7,53.9,297.1,53.9z M297.7,76.4c1.3,0,2.4-0.2,3.3-0.5c0.9-0.3,1.5-0.7,1.9-1.1c0.4-0.4,0.6-0.9,0.6-1.4
			c0-0.6-0.3-1.1-0.8-1.5c-0.5-0.4-1.4-0.5-2.7-0.5l-5.3,0.1c-0.7,0-1.3,0.2-1.8,0.6c-0.5,0.4-0.7,0.9-0.7,1.6c0,0.8,0.5,1.5,1.5,2
			C294.6,76.2,296,76.4,297.7,76.4z M297.1,56.1c-1.2,0-2.2,0.4-3,1c-0.8,0.7-1.2,1.5-1.2,2.6c0,1,0.4,1.9,1.2,2.5
			c0.8,0.6,1.8,1,3,0.9c1.2,0,2.2-0.4,3-1c0.8-0.7,1.2-1.5,1.2-2.6c0-1.1-0.4-1.9-1.2-2.6C299.3,56.4,298.3,56.1,297.1,56.1z
			 M305.6,50.9l0.7,2.4c0,0-0.1,0-0.1,0s-0.1,0-0.1,0c-1.1,0-2,0.3-2.6,0.7c-0.6,0.5-0.9,1.2-0.9,2.2l-1.7-0.8
			c0-0.9,0.2-1.7,0.6-2.3c0.4-0.7,1-1.2,1.7-1.6c0.7-0.4,1.5-0.6,2.3-0.6C305.5,50.9,305.5,50.9,305.6,50.9
			C305.6,50.9,305.6,50.9,305.6,50.9z"/>
		<path id="XMLID_23_" d="M312.5,54.5l-0.8,17.1l-2.7-0.1l0.8-17.1L312.5,54.5z M311.3,51.2c-0.6,0-1.1-0.2-1.5-0.6
			c-0.4-0.4-0.5-0.9-0.5-1.5c0-0.6,0.2-1.1,0.6-1.5c0.4-0.4,0.9-0.5,1.5-0.5c0.6,0,1.1,0.2,1.5,0.6c0.4,0.4,0.5,0.9,0.5,1.5
			c0,0.6-0.2,1.1-0.6,1.5C312.4,51,311.9,51.2,311.3,51.2z"/>
		<path id="XMLID_26_" d="M317.4,71.8l1.8-17l2.4,0.3l-0.2,3.8l-0.4-0.4c0.5-0.9,1-1.5,1.7-2c0.7-0.5,1.4-0.8,2.3-1
			c0.8-0.2,1.7-0.2,2.5-0.1c1.2,0.1,2.3,0.5,3.3,1.1c0.9,0.6,1.7,1.4,2.2,2.4c0.5,1,0.7,2.3,0.5,3.7l-1.2,10.9l-2.7-0.3l1.1-9.9
			c0.2-1.9-0.1-3.2-0.8-4.1c-0.7-0.8-1.7-1.3-2.9-1.4c-0.8-0.1-1.7,0-2.5,0.3c-0.9,0.3-1.6,0.8-2.2,1.7c-0.6,0.8-1,1.9-1.2,3.4
			l-1,9.1L317.4,71.8z"/>
		<path id="XMLID_28_" d="M343.3,58l-2.9,16.9l-2.7-0.5l2.9-16.9L343.3,58z M342.6,54.5c-0.6-0.1-1.1-0.4-1.4-0.8
			c-0.3-0.4-0.4-1-0.3-1.6c0.1-0.6,0.4-1.1,0.8-1.4c0.4-0.3,1-0.4,1.6-0.3c0.6,0.1,1.1,0.4,1.4,0.8c0.3,0.4,0.4,1,0.3,1.6
			c-0.1,0.6-0.4,1.1-0.8,1.4C343.7,54.5,343.2,54.6,342.6,54.5z"/>
		<path id="XMLID_31_" d="M346,75.8l4-16.7l2.3,0.6l-0.7,3.8l-0.3-0.5c0.6-0.8,1.2-1.4,1.9-1.8c0.7-0.4,1.5-0.6,2.4-0.7
			c0.8-0.1,1.7,0,2.5,0.2c1.2,0.3,2.2,0.8,3.1,1.5c0.9,0.7,1.5,1.6,1.9,2.6c0.4,1.1,0.4,2.3,0,3.8l-2.5,10.7l-2.7-0.6l2.3-9.7
			c0.4-1.8,0.3-3.2-0.3-4.1c-0.6-0.9-1.5-1.5-2.7-1.8c-0.8-0.2-1.6-0.2-2.5,0c-0.9,0.2-1.7,0.6-2.4,1.4c-0.7,0.7-1.3,1.8-1.6,3.2
			l-2.1,8.9L346,75.8z"/>
		<path id="XMLID_33_" d="M375.1,81.5c1.5,0.5,2.6,1.2,3.3,2.2c0.6,1,0.8,2.1,0.4,3.2c-0.3,1.1-1,1.9-2,2.4c-1,0.6-2.1,0.8-3.4,0.9
			c-1.3,0-2.7-0.2-4.2-0.7c-2.6-0.8-4.3-1.9-5.3-3.2c-1-1.3-1.3-2.5-0.9-3.7c0.3-0.9,0.8-1.5,1.6-2c0.8-0.5,1.9-0.6,3.3-0.2
			l-0.4,0.4c-0.7-0.4-1.2-1-1.5-1.6c-0.4-0.6-0.4-1.4-0.1-2.3c0.3-0.9,0.9-1.5,1.7-2c0.9-0.4,2-0.5,3.3-0.2l1.4,1.4l-0.3-0.1
			c-1.1-0.2-1.9-0.2-2.5,0.1c-0.6,0.3-1,0.7-1.1,1.2c-0.2,0.6-0.1,1.1,0.2,1.6c0.3,0.4,0.9,0.8,1.7,1L375.1,81.5z M369.9,87.5
			c1.3,0.4,2.3,0.6,3.2,0.6c0.9,0,1.6-0.1,2.1-0.4c0.5-0.3,0.9-0.7,1-1.1c0.2-0.6,0.1-1.1-0.2-1.6c-0.4-0.5-1.1-0.9-2.4-1.3l-5-1.6
			c-0.7-0.2-1.3-0.2-1.9,0c-0.6,0.2-1,0.6-1.2,1.2c-0.3,0.8,0,1.6,0.8,2.4C367,86.3,368.2,86.9,369.9,87.5z M376.6,66
			c1.3,0.4,2.4,1,3.2,1.8c0.9,0.8,1.4,1.7,1.7,2.7c0.3,1,0.3,2.1-0.1,3.1c-0.3,1.1-0.9,1.9-1.8,2.6c-0.8,0.7-1.8,1-3,1.2
			c-1.2,0.1-2.4,0-3.7-0.4c-2.1-0.7-3.6-1.8-4.4-3.2c-0.8-1.4-1-2.9-0.4-4.5c0.4-1.1,1-1.9,1.8-2.6c0.8-0.6,1.8-1,3-1.2
			C374.1,65.4,375.3,65.5,376.6,66z M375.9,68.1c-1.1-0.4-2.2-0.4-3.1,0c-1,0.4-1.6,1.1-1.9,2.1c-0.3,1-0.2,1.9,0.3,2.8
			c0.6,0.9,1.4,1.5,2.5,1.9c1.1,0.4,2.2,0.4,3.1,0c1-0.4,1.6-1.1,1.9-2.1c0.3-1,0.2-2-0.3-2.8C377.9,69.1,377,68.4,375.9,68.1z
			 M385.7,66l-0.2,2.5c0,0-0.1,0-0.1,0c0,0-0.1,0-0.1,0c-1.1-0.3-2-0.4-2.7-0.2c-0.7,0.2-1.2,0.8-1.5,1.8l-1.3-1.3
			c0.3-0.8,0.7-1.5,1.3-2c0.6-0.5,1.3-0.8,2.1-0.9c0.8-0.1,1.6,0,2.4,0.2C385.5,65.9,385.5,65.9,385.7,66
			C385.6,65.9,385.6,65.9,385.7,66z"/>
		<path id="XMLID_39_" d="M406.3,77.8c1.5,0.7,2.6,1.6,3.4,2.8c0.8,1.2,1.3,2.5,1.3,4c0.1,1.5-0.3,3.1-1.1,4.8c-0.8,1.7-1.8,3-3,3.9
			c-1.2,0.9-2.5,1.4-4,1.5c-1.4,0.1-2.9-0.2-4.3-0.9c-1.4-0.7-2.6-1.6-3.4-2.8c-0.8-1.2-1.3-2.5-1.3-4c-0.1-1.5,0.3-3.1,1.1-4.8
			c0.8-1.7,1.8-3,3-3.9s2.5-1.4,4-1.5C403.4,76.8,404.8,77.1,406.3,77.8z M405.3,79.9c-1.1-0.5-2.1-0.7-3-0.6
			c-1,0.1-1.9,0.5-2.7,1.2c-0.8,0.7-1.5,1.6-2.1,2.9c-0.6,1.2-0.9,2.4-0.9,3.4c0,1.1,0.2,2,0.7,2.9c0.5,0.8,1.3,1.5,2.3,2
			c1,0.5,2.1,0.7,3,0.6c1-0.1,1.9-0.5,2.7-1.2c0.8-0.7,1.5-1.6,2.1-2.9c0.6-1.2,0.9-2.4,0.9-3.5c0-1.1-0.2-2-0.7-2.8
			C407.1,81.1,406.3,80.4,405.3,79.9z"/>
		<path id="XMLID_42_" d="M428.2,80.7c0.5,0.3,1,0.6,1.4,1c0.4,0.4,0.7,0.7,0.8,1.1l-1.7,1.6c-0.1-0.3-0.3-0.6-0.6-0.8
			c-0.2-0.2-0.5-0.4-0.9-0.6c-0.9-0.5-1.6-0.7-2.3-0.5c-0.7,0.1-1.3,0.7-1.8,1.5l-1.3,2.3l-0.4,0.8l-8,14.1l-2.4-1.3l9.8-17.4
			c0.4-0.7,0.8-1.2,1.3-1.6c0.5-0.4,1.1-0.7,1.7-0.9c0.6-0.2,1.3-0.2,2.1-0.1C426.6,79.9,427.4,80.2,428.2,80.7z M426.7,89.1
			l-1.2,2.1l-10.3-5.8l1.2-2.1L426.7,89.1z"/>
	</g>
	<g id="XMLID_100_">
		<path id="XMLID_101_" d="M36.8,323c-5.2,0-9.7-1-13.3-3c-3.6-2-6.4-4.8-8.3-8.3c-1.9-3.6-2.8-7.8-2.8-12.6c0-4.9,1-9.2,2.9-12.8
			s4.8-6.4,8.5-8.4c3.7-2,8.2-3,13.4-3c2.4,0,4.8,0.3,7.1,0.8c2.4,0.5,4.7,1.4,6.9,2.6c1.2,0.7,1.9,1.5,2.1,2.6
			c0.2,1.1,0.1,2.2-0.4,3.2c-0.5,1-1.2,1.8-2.2,2.2c-1,0.5-2.2,0.4-3.5-0.3c-3-1.5-6.3-2.3-10-2.3c-4.7,0-8.3,1.3-10.6,3.9
			c-2.4,2.6-3.5,6.4-3.5,11.3c0,5,1.2,8.7,3.6,11.3c2.4,2.6,6,3.8,10.7,3.8c2.5,0,5.2-0.4,7.9-1.2V304h-5.9c-2.7,0-4.1-1.2-4.1-3.7
			c0-2.5,1.4-3.7,4.1-3.7h10.4c2.7,0,4,1.4,4,4.1V316c0,1.1-0.2,2.1-0.7,2.9c-0.5,0.8-1.2,1.4-2.2,1.7c-2,0.7-4.2,1.3-6.7,1.7
			C41.7,322.8,39.2,323,36.8,323z"/>
		<path id="XMLID_103_" d="M78.8,323c-3.8,0-7.1-0.7-9.9-2.1c-2.8-1.4-4.9-3.3-6.3-5.9c-1.5-2.5-2.2-5.5-2.2-9
			c0-3.3,0.7-6.3,2.1-8.8c1.4-2.5,3.4-4.5,5.9-5.9c2.5-1.4,5.4-2.1,8.6-2.1c4.7,0,8.5,1.5,11.2,4.5c2.8,3,4.2,7,4.2,12.1
			c0,1.7-1,2.5-3.1,2.5H69.9c0.4,2.6,1.3,4.4,2.8,5.6c1.5,1.2,3.6,1.8,6.3,1.8c1.1,0,2.3-0.1,3.6-0.4c1.3-0.2,2.6-0.7,3.9-1.3
			c1.3-0.6,2.4-0.7,3.2-0.4c0.9,0.4,1.5,1,1.8,1.9c0.3,0.9,0.3,1.8,0,2.7c-0.3,0.9-1.1,1.7-2.2,2.3c-1.5,0.8-3.3,1.5-5.1,1.9
			C82.3,322.8,80.5,323,78.8,323z M77.4,295.8c-2.1,0-3.8,0.6-5.1,1.9c-1.3,1.3-2.1,3.1-2.4,5.4h14.3
			C83.9,298.2,81.6,295.8,77.4,295.8z"/>
		<path id="XMLID_106_" d="M103.2,322.9c-3.3,0-5-1.7-5-5.1v-23.5c0-3.3,1.6-5,4.9-5c3.3,0,4.9,1.7,4.9,5v0.3c1.1-1.8,2.6-3.1,4.4-4
			c1.9-0.9,3.9-1.4,6.2-1.4c3.8,0,6.7,1.1,8.6,3.3c1.9,2.2,2.8,5.7,2.8,10.3v15c0,3.4-1.7,5.1-5,5.1c-1.6,0-2.8-0.4-3.7-1.3
			c-0.9-0.9-1.3-2.1-1.3-3.8v-14.5c0-2.2-0.4-3.9-1.3-4.9c-0.8-1-2.1-1.5-3.7-1.5c-2.1,0-3.8,0.7-5.1,2c-1.3,1.3-1.9,3.1-1.9,5.3
			v13.6C108.2,321.2,106.5,322.9,103.2,322.9z"/>
		<path id="XMLID_108_" d="M154.4,323c-3.8,0-7.1-0.7-9.9-2.1c-2.8-1.4-4.9-3.3-6.3-5.9c-1.5-2.5-2.2-5.5-2.2-9
			c0-3.3,0.7-6.3,2.1-8.8c1.4-2.5,3.4-4.5,5.9-5.9c2.5-1.4,5.4-2.1,8.6-2.1c4.7,0,8.5,1.5,11.2,4.5c2.8,3,4.2,7,4.2,12.1
			c0,1.7-1,2.5-3.1,2.5h-19.4c0.4,2.6,1.3,4.4,2.8,5.6s3.6,1.8,6.3,1.8c1.1,0,2.3-0.1,3.6-0.4c1.3-0.2,2.6-0.7,3.9-1.3
			c1.3-0.6,2.4-0.7,3.2-0.4c0.9,0.4,1.5,1,1.8,1.9c0.3,0.9,0.3,1.8,0,2.7c-0.3,0.9-1.1,1.7-2.2,2.3c-1.5,0.8-3.3,1.5-5.1,1.9
			C157.9,322.8,156.1,323,154.4,323z M153,295.8c-2.1,0-3.8,0.6-5.1,1.9c-1.3,1.3-2.1,3.1-2.4,5.4h14.3
			C159.5,298.2,157.2,295.8,153,295.8z"/>
		<path id="XMLID_111_" d="M186.3,323c-1.9,0-3.9-0.2-6-0.5c-2-0.4-3.9-0.9-5.6-1.8c-1.1-0.6-1.8-1.3-2.1-2.2
			c-0.3-0.9-0.3-1.7,0-2.6c0.3-0.8,0.9-1.5,1.7-1.9c0.8-0.4,1.7-0.4,2.8,0c1.8,0.8,3.5,1.3,5,1.6c1.5,0.3,3,0.5,4.4,0.5
			c1.9,0,3.2-0.3,4.1-0.9c0.9-0.6,1.3-1.4,1.3-2.3c0-1.5-1.1-2.5-3.4-2.9l-6.9-1.3c-2.8-0.5-4.9-1.5-6.3-3c-1.5-1.5-2.2-3.5-2.2-5.9
			c0-2.2,0.6-4.1,1.9-5.7c1.2-1.6,2.9-2.8,5.1-3.7s4.6-1.3,7.5-1.3c3.9,0,7.3,0.8,10.3,2.2c1,0.5,1.6,1.2,1.9,2
			c0.2,0.9,0.2,1.7-0.2,2.6c-0.4,0.8-0.9,1.5-1.7,1.9c-0.8,0.4-1.7,0.4-2.8-0.1c-1.5-0.7-2.8-1.1-4-1.4c-1.2-0.3-2.3-0.4-3.4-0.4
			c-2,0-3.4,0.3-4.3,1c-0.9,0.6-1.3,1.4-1.3,2.4c0,1.5,1,2.5,3.1,2.9l6.9,1.3c2.9,0.5,5,1.4,6.5,2.9c1.5,1.4,2.2,3.4,2.2,5.8
			c0,3.4-1.3,6-4,7.9C194.1,322.1,190.6,323,186.3,323z"/>
		<path id="XMLID_113_" d="M211.4,283.9c-1.9,0-3.3-0.4-4.3-1.3c-1-0.9-1.5-2.1-1.5-3.7c0-1.6,0.5-2.9,1.5-3.7
			c1-0.9,2.4-1.3,4.3-1.3c3.8,0,5.7,1.7,5.7,5C217.1,282.2,215.2,283.9,211.4,283.9z M211.4,322.8c-1.6,0-2.9-0.5-3.7-1.4
			c-0.9-0.9-1.3-2.3-1.3-4v-22.6c0-3.7,1.7-5.5,5-5.5c1.6,0,2.8,0.5,3.7,1.4c0.9,0.9,1.3,2.3,1.3,4.1v22.6c0,1.7-0.4,3.1-1.3,4
			C214.2,322.3,213,322.8,211.4,322.8z"/>
		<path id="XMLID_116_" d="M236.5,323c-1.9,0-3.9-0.2-6-0.5c-2-0.4-3.9-0.9-5.6-1.8c-1.1-0.6-1.8-1.3-2.1-2.2
			c-0.3-0.9-0.3-1.7,0-2.6c0.3-0.8,0.9-1.5,1.7-1.9c0.8-0.4,1.7-0.4,2.8,0c1.8,0.8,3.5,1.3,5,1.6c1.5,0.3,3,0.5,4.4,0.5
			c1.9,0,3.2-0.3,4.1-0.9c0.9-0.6,1.3-1.4,1.3-2.3c0-1.5-1.1-2.5-3.4-2.9l-6.9-1.3c-2.8-0.5-4.9-1.5-6.3-3c-1.5-1.5-2.2-3.5-2.2-5.9
			c0-2.2,0.6-4.1,1.9-5.7c1.2-1.6,2.9-2.8,5.1-3.7c2.2-0.9,4.6-1.3,7.5-1.3c3.9,0,7.3,0.8,10.3,2.2c1,0.5,1.6,1.2,1.9,2
			c0.2,0.9,0.2,1.7-0.2,2.6c-0.4,0.8-0.9,1.5-1.7,1.9c-0.8,0.4-1.7,0.4-2.8-0.1c-1.5-0.7-2.8-1.1-4-1.4c-1.2-0.3-2.3-0.4-3.4-0.4
			c-2,0-3.4,0.3-4.3,1c-0.9,0.6-1.3,1.4-1.3,2.4c0,1.5,1,2.5,3.1,2.9l6.9,1.3c2.9,0.5,5,1.4,6.5,2.9c1.5,1.4,2.2,3.4,2.2,5.8
			c0,3.4-1.3,6-4,7.9C244.3,322.1,240.8,323,236.5,323z"/>
		<path id="XMLID_118_" d="M280.6,322.9c-1.5,0-2.6-0.4-3.4-1.3c-0.8-0.8-1.2-2-1.2-3.5v-38.3c0-1.5,0.4-2.7,1.3-3.5
			c0.8-0.8,2-1.2,3.6-1.2c1.3,0,2.4,0.3,3.1,0.8c0.8,0.5,1.5,1.4,2.1,2.6l14.1,25.8l14.1-25.8c0.7-1.2,1.4-2,2.1-2.6
			c0.8-0.5,1.8-0.8,3.1-0.8c1.5,0,2.7,0.4,3.5,1.2c0.8,0.8,1.2,2,1.2,3.5v38.3c0,3.2-1.5,4.8-4.6,4.8c-3.1,0-4.7-1.6-4.7-4.8v-24.3
			l-10.8,19.5c-0.5,0.8-1.1,1.5-1.7,1.9c-0.6,0.4-1.4,0.6-2.3,0.6c-1,0-1.8-0.2-2.4-0.6c-0.6-0.4-1.2-1-1.7-1.9l-10.8-19.3v24.1
			C285.3,321.3,283.7,322.9,280.6,322.9z"/>
		<path id="XMLID_120_" d="M343.9,323c-2.4,0-4.6-0.5-6.4-1.4s-3.3-2.2-4.4-3.8c-1.1-1.6-1.6-3.4-1.6-5.4c0-2.3,0.6-4.2,1.9-5.6
			c1.2-1.4,3.2-2.4,6-3c2.8-0.6,6.5-0.9,11-0.9h2.4v-1.1c0-1.9-0.4-3.3-1.3-4.1c-0.9-0.8-2.4-1.2-4.5-1.2c-1.2,0-2.5,0.1-3.9,0.4
			c-1.4,0.3-2.9,0.8-4.6,1.4c-1.2,0.5-2.3,0.6-3.1,0.1c-0.8-0.5-1.4-1.2-1.7-2.1c-0.3-0.9-0.2-1.9,0.2-2.9c0.4-1,1.2-1.7,2.5-2.1
			c2.1-0.8,4-1.4,5.8-1.7c1.8-0.3,3.5-0.5,5.1-0.5c5,0,8.8,1.1,11.2,3.4c2.5,2.3,3.7,5.8,3.7,10.5v14.7c0,3.4-1.5,5.1-4.6,5.1
			c-3.1,0-4.7-1.7-4.7-5.1v-0.4c-0.7,1.7-1.8,3.1-3.3,4.1C348,322.5,346.1,323,343.9,323z M346.1,316.3c1.9,0,3.4-0.6,4.7-1.9
			c1.3-1.3,1.9-2.9,1.9-5v-1.3h-2.3c-3.4,0-5.8,0.3-7.2,0.9c-1.4,0.6-2.1,1.6-2.1,3.1c0,1.2,0.4,2.2,1.3,3
			C343.3,315.9,344.5,316.3,346.1,316.3z"/>
		<path id="XMLID_123_" d="M374.9,322.9c-3.4,0-5.2-1.7-5.2-5.1v-23.5c0-3.3,1.6-5,4.9-5c3.3,0,4.9,1.7,4.9,5v1.2
			c1.6-3.9,4.9-6,9.8-6.3c1.1-0.1,2,0.2,2.5,0.8c0.6,0.6,0.9,1.7,1,3.1c0.1,1.4-0.2,2.4-0.8,3.2c-0.6,0.8-1.7,1.3-3.2,1.5l-1.5,0.1
			c-4.9,0.5-7.4,3-7.4,7.5v12.3C379.9,321.2,378.2,322.9,374.9,322.9z"/>
		<path id="XMLID_125_" d="M402,322.9c-3.3,0-5-1.7-5-5.1v-37.6c0-3.4,1.7-5.1,5-5.1c3.3,0,5,1.7,5,5.1v23.1h0.1l9.6-10.6
			c1-1.1,1.9-1.9,2.6-2.5c0.8-0.5,1.9-0.8,3.3-0.8c1.4,0,2.4,0.3,3.2,1c0.7,0.7,1.1,1.5,1.1,2.6c0,1-0.4,2-1.3,3l-8.5,9.5l9.6,11
			c0.8,1.1,1.2,2.1,1.1,3.1c-0.1,1-0.6,1.8-1.4,2.4s-1.8,1-3,1c-1.5,0-2.7-0.3-3.6-0.9c-0.9-0.6-1.8-1.5-2.7-2.6l-10-11.1h-0.1v9.5
			C406.9,321.2,405.3,322.9,402,322.9z"/>
		<path id="XMLID_127_" d="M450.2,323c-3.8,0-7.1-0.7-9.9-2.1c-2.8-1.4-4.9-3.3-6.3-5.9c-1.5-2.5-2.2-5.5-2.2-9
			c0-3.3,0.7-6.3,2.1-8.8c1.4-2.5,3.4-4.5,5.9-5.9c2.5-1.4,5.4-2.1,8.6-2.1c4.7,0,8.5,1.5,11.2,4.5c2.8,3,4.2,7,4.2,12.1
			c0,1.7-1,2.5-3.1,2.5h-19.4c0.4,2.6,1.3,4.4,2.8,5.6c1.5,1.2,3.6,1.8,6.3,1.8c1.1,0,2.3-0.1,3.6-0.4c1.3-0.2,2.6-0.7,3.9-1.3
			c1.3-0.6,2.4-0.7,3.2-0.4c0.9,0.4,1.5,1,1.8,1.9c0.3,0.9,0.3,1.8,0,2.7c-0.3,0.9-1.1,1.7-2.2,2.3c-1.5,0.8-3.3,1.5-5.1,1.9
			C453.7,322.8,451.9,323,450.2,323z M448.8,295.8c-2.1,0-3.8,0.6-5.1,1.9c-1.3,1.3-2.1,3.1-2.4,5.4h14.3
			C455.3,298.2,453,295.8,448.8,295.8z"/>
		<path id="XMLID_130_" d="M485.3,323c-9.1,0-13.7-4.4-13.7-13.3v-12.4h-2.8c-2.6,0-3.9-1.2-3.9-3.7c0-2.5,1.3-3.8,3.9-3.8h2.8v-5
			c0-3.4,1.7-5.1,5-5.1c3.3,0,5,1.7,5,5.1v5h6.3c2.6,0,3.8,1.3,3.8,3.8c0,2.5-1.3,3.7-3.8,3.7h-6.3v12c0,1.9,0.4,3.2,1.3,4.2
			s2.2,1.4,4.1,1.4c0.7,0,1.3-0.1,1.9-0.2c0.6-0.1,1.1-0.2,1.6-0.3c0.6,0,1.1,0.2,1.5,0.6c0.4,0.4,0.6,1.3,0.6,2.7
			c0,1.1-0.2,2-0.5,2.8c-0.4,0.8-1,1.3-1.9,1.7c-0.6,0.2-1.4,0.4-2.3,0.6C486.9,322.9,486,323,485.3,323z"/>
		<path id="XMLID_132_" d="M502.1,283.9c-1.9,0-3.3-0.4-4.3-1.3c-1-0.9-1.5-2.1-1.5-3.7c0-1.6,0.5-2.9,1.5-3.7
			c1-0.9,2.4-1.3,4.3-1.3c3.8,0,5.7,1.7,5.7,5C507.8,282.2,505.9,283.9,502.1,283.9z M502.1,322.8c-1.6,0-2.9-0.5-3.7-1.4
			c-0.9-0.9-1.3-2.3-1.3-4v-22.6c0-3.7,1.7-5.5,5-5.5c1.6,0,2.8,0.5,3.7,1.4c0.9,0.9,1.3,2.3,1.3,4.1v22.6c0,1.7-0.4,3.1-1.3,4
			C505,322.3,503.7,322.8,502.1,322.8z"/>
		<path id="XMLID_135_" d="M519.8,322.9c-3.3,0-5-1.7-5-5.1v-23.5c0-3.3,1.6-5,4.9-5c3.3,0,4.9,1.7,4.9,5v0.3c1.1-1.8,2.6-3.1,4.4-4
			s3.9-1.4,6.2-1.4c3.8,0,6.7,1.1,8.6,3.3c1.9,2.2,2.8,5.7,2.8,10.3v15c0,3.4-1.7,5.1-5,5.1c-1.6,0-2.8-0.4-3.7-1.3
			c-0.9-0.9-1.3-2.1-1.3-3.8v-14.5c0-2.2-0.4-3.9-1.3-4.9c-0.8-1-2.1-1.5-3.7-1.5c-2.1,0-3.8,0.7-5.1,2c-1.3,1.3-1.9,3.1-1.9,5.3
			v13.6C524.8,321.2,523.1,322.9,519.8,322.9z"/>
		<path id="XMLID_140_" d="M569.7,334.9c-2.4,0-4.7-0.2-6.8-0.6c-2.2-0.4-4.1-1-5.8-1.8c-1.3-0.5-2.1-1.3-2.4-2.2
			c-0.4-1-0.3-1.9,0-2.8c0.4-0.9,1-1.6,1.8-2.1c0.8-0.5,1.7-0.5,2.7,0c1.9,0.9,3.7,1.5,5.4,1.7c1.7,0.3,3.1,0.4,4.3,0.4
			c5.6,0,8.5-2.6,8.5-7.8v-3.7c-0.9,1.7-2.3,3-4.2,4c-1.9,1-4,1.5-6.2,1.5c-2.9,0-5.4-0.7-7.6-2c-2.2-1.3-3.8-3.2-5-5.7
			c-1.2-2.4-1.8-5.3-1.8-8.5c0-3.2,0.6-6,1.8-8.5c1.2-2.4,2.9-4.3,5-5.6c2.2-1.3,4.7-2,7.6-2c2.2,0,4.3,0.5,6.1,1.5
			c1.9,1,3.2,2.2,4.1,3.8v-0.1c0-1.6,0.4-2.9,1.3-3.7c0.9-0.9,2.1-1.3,3.7-1.3c3.3,0,4.9,1.7,4.9,5v24.2c0,5.5-1.5,9.6-4.4,12.3
			C579.7,333.5,575.4,334.9,569.7,334.9z M569.9,314c2.2,0,4-0.8,5.3-2.3c1.3-1.5,2-3.7,2-6.4c0-2.7-0.7-4.9-2-6.4
			c-1.3-1.5-3.1-2.3-5.3-2.3c-2.2,0-4,0.8-5.4,2.3c-1.3,1.5-2,3.6-2,6.4c0,2.7,0.7,4.9,2,6.4C565.9,313.3,567.7,314,569.9,314z"/>
	</g>
</g>
</svg>
